<svg id="Layer_1" data-name="Layer 1" xmlns="http://www.w3.org/2000/svg" viewBox="0 0 253.42 70.56"><defs><style>.cls-1{fill:#fff;}</style></defs><title>ez_dial</title><path class="cls-1" d="M28.16,12.72H66.77l-2.55,12H38.35l-3.43,16H58.54l-2.65,12H32.47L28.85,69.36H55.21l-2.45,12H13.66Z" transform="translate(-13.66 -11.93)"/><path class="cls-1" d="M62.46,69.36L97.74,28.59l5.68-3.92H72l2.45-12h45.18l-2.45,12L81.67,65.73l-5.49,3.63h31.46l-2.55,12H59.91Z" transform="translate(-13.66 -11.93)"/><path class="cls-1" d="M156.93,64.46q0,5,.1,9.06a46.07,46.07,0,0,0,.88,8h-5.29l-2-7h-0.39a15.79,15.79,0,0,1-5.68,5.68,16.52,16.52,0,0,1-8.72,2.25q-9.8,0-14.55-6.17T116.56,57q0-12.54,5.93-19.06t16.32-6.52a33.05,33.05,0,0,1,5.73.39,29.67,29.67,0,0,1,4.56,1.27V12.72h7.84V64.46Zm-19.8,11.17a11.56,11.56,0,0,0,7.94-2.6q2.94-2.6,4-7.89V40.84a11,11,0,0,0-4-2,24.48,24.48,0,0,0-6-.59q-6.76,0-10.58,4.46T124.69,57a40.73,40.73,0,0,0,.64,7.45,17.57,17.57,0,0,0,2.11,5.88,11,11,0,0,0,3.87,3.87A11.26,11.26,0,0,0,137.14,75.63Z" transform="translate(-13.66 -11.93)"/><path class="cls-1" d="M172,17.42a5.45,5.45,0,0,1,1.52-3.87,5.08,5.08,0,0,1,3.87-1.62,5.56,5.56,0,0,1,4,1.62,5.21,5.21,0,0,1,1.67,3.87,4.75,4.75,0,0,1-1.67,3.72,5.86,5.86,0,0,1-4,1.47,5.34,5.34,0,0,1-3.87-1.47A5,5,0,0,1,172,17.42Zm1.67,14.9h7.84v49h-7.84v-49Z" transform="translate(-13.66 -11.93)"/><path class="cls-1" d="M197.5,35.94a28.26,28.26,0,0,1,8.67-3.33,48.5,48.5,0,0,1,10.34-1.08,20.42,20.42,0,0,1,8.18,1.37,11.42,11.42,0,0,1,4.7,3.58,12.26,12.26,0,0,1,2.16,4.85,26.51,26.51,0,0,1,.54,5.29q0,5.88-.29,11.47t-0.29,10.58q0,3.63.29,6.86a32.23,32.23,0,0,0,1.08,6H227.1L225,74.65h-0.49a16.25,16.25,0,0,1-2.21,2.7,14.15,14.15,0,0,1-3.19,2.35,20.1,20.1,0,0,1-4.31,1.72,20.81,20.81,0,0,1-5.59.69,17,17,0,0,1-5.83-1,13.59,13.59,0,0,1-4.66-2.79A13,13,0,0,1,195.69,74a14.14,14.14,0,0,1-1.13-5.78,13.61,13.61,0,0,1,1.76-7.2,12.73,12.73,0,0,1,4.95-4.61,24.46,24.46,0,0,1,7.64-2.45,60.73,60.73,0,0,1,9.85-.74h2.7a19.16,19.16,0,0,1,2.69.2q0.29-2.94.29-5.29,0-5.39-2.16-7.55t-7.84-2.16a27.27,27.27,0,0,0-3.58.25Q209,38.9,207,39.35a32,32,0,0,0-3.82,1.11A19,19,0,0,0,200,41.92Zm13.92,39.3a15.14,15.14,0,0,0,4.9-.73A14.17,14.17,0,0,0,220,72.64a11.82,11.82,0,0,0,2.6-2.5,11.14,11.14,0,0,0,1.52-2.65V59.36q-1.37-.1-2.79-0.15t-2.79,0a50.3,50.3,0,0,0-5.93.34,18.78,18.78,0,0,0-5.1,1.27A9,9,0,0,0,204,63.33a6.21,6.21,0,0,0-1.32,4.07A7.24,7.24,0,0,0,205.15,73,9,9,0,0,0,211.42,75.24Z" transform="translate(-13.66 -11.93)"/><path class="cls-1" d="M255.62,69.26q0,3.43,1.18,4.9a4,4,0,0,0,3.33,1.47,20.65,20.65,0,0,0,2.74-.2,15.79,15.79,0,0,0,3.33-.88l0.88,6.17A16.39,16.39,0,0,1,262.72,82a28.65,28.65,0,0,1-4.85.49,10.58,10.58,0,0,1-7.25-2.5q-2.84-2.5-2.84-8.48V12.72h7.84V69.26Z" transform="translate(-13.66 -11.93)"/></svg>