<?xml version="1.0" encoding="utf-8"?>
<!-- Generator: Adobe Illustrator 19.2.1, SVG Export Plug-In . SVG Version: 6.00 Build 0)  -->
<svg version="1.1" id="Capa_1" xmlns="http://www.w3.org/2000/svg" xmlns:xlink="http://www.w3.org/1999/xlink" x="0px" y="0px"
	 viewBox="0 0 476.7 476.7" style="enable-background:new 0 0 476.7 476.7;" xml:space="preserve">
<style type="text/css">
	.st0{fill:#FFFFFF;}
</style>
<g>
	<g>
		<g>
			<path class="st0" d="M238.4,0C106.7,0,0,106.7,0,238.4C0,370,106.7,476.7,238.4,476.7c131.7,0,238.4-106.7,238.4-238.4
				C476.7,106.7,370,0,238.4,0z M365.5,349.6H111.2c-8.8,0-15.9-7.2-15.9-15.9s7.1-15.9,15.9-15.9h254.3c8.7,0,15.9,7.2,15.9,15.9
				C381.4,342.5,374.2,349.6,365.5,349.6z M365.5,254.3H111.2c-8.8,0-15.9-7.2-15.9-15.9c0-8.8,7.1-15.9,15.9-15.9h254.3
				c8.7,0,15.9,7.1,15.9,15.9C381.4,247.1,374.2,254.3,365.5,254.3z M365.5,158.9H111.2c-8.8,0-15.9-7.1-15.9-15.9
				s7.1-15.9,15.9-15.9h254.3c8.7,0,15.9,7.1,15.9,15.9C381.4,151.8,374.2,158.9,365.5,158.9z"/>
		</g>
	</g>
</g>
</svg>
